<svg width="810" height="707" viewBox="0 0 810 707" fill="none" xmlns="http://www.w3.org/2000/svg">
<ellipse cx="405.106" cy="353.557" rx="404.635" ry="353.367" fill="#03FA83"/>
<ellipse cx="399.486" cy="325.512" rx="106.779" ry="89.744" fill="#8CEAD3"/>
<ellipse cx="399.486" cy="325.512" rx="106.779" ry="89.744" fill="#8CEAD3"/>
<ellipse cx="399.486" cy="325.512" rx="106.779" ry="89.744" fill="#8CEAD3"/>
<path fill-rule="evenodd" clip-rule="evenodd" d="M169.301 647.554C174.756 543.258 275.727 460.128 399.486 460.128C520.66 460.128 619.987 539.82 629.205 641.044C562.897 682.515 481.646 706.924 393.867 706.924C310.785 706.924 233.551 685.057 169.301 647.554Z" fill="#8CEAD3"/>
<path fill-rule="evenodd" clip-rule="evenodd" d="M169.301 647.554C174.756 543.258 275.727 460.128 399.486 460.128C520.66 460.128 619.987 539.82 629.205 641.044C562.897 682.515 481.646 706.924 393.867 706.924C310.785 706.924 233.551 685.057 169.301 647.554Z" fill="#8CEAD3"/>
<path fill-rule="evenodd" clip-rule="evenodd" d="M169.301 647.554C174.756 543.258 275.727 460.128 399.486 460.128C520.66 460.128 619.987 539.82 629.205 641.044C562.897 682.515 481.646 706.924 393.867 706.924C310.785 706.924 233.551 685.057 169.301 647.554Z" fill="#8CEAD3"/>
</svg>
