<svg id="Слой_1" data-name="Слой 1" xmlns="http://www.w3.org/2000/svg" viewBox="0 0 385.79 360.04"><defs><style>.cls-1,.cls-2,.cls-3{fill:none;stroke:#006413;stroke-miterlimit:10;}.cls-1{stroke-width:12px;}.cls-2{stroke-width:10px;}.cls-3{stroke-width:8px;}</style></defs><rect class="cls-1" x="6" y="94.38" width="373.79" height="259.66" rx="27.96"/><line class="cls-2" x1="60.83" y1="94.38" x2="59.27" y2="349.44"/><line class="cls-2" x1="331.37" y1="96.69" x2="329.81" y2="351.74"/><line class="cls-2" x1="89.49" y1="94.38" x2="89.49" y2="143.4"/><line class="cls-2" x1="301.28" y1="94.38" x2="301.28" y2="143.4"/><line class="cls-2" x1="89.49" y1="198.22" x2="89.49" y2="350.98"/><line class="cls-2" x1="301.28" y1="195.32" x2="301.28" y2="348.08"/><path class="cls-1" d="M653.2,398V371.47a6.64,6.64,0,0,1,6.58-6.7h44.13a6.11,6.11,0,0,1,6.06,6.16v28.15a5.33,5.33,0,0,0,5.28,5.38h30.58a5.31,5.31,0,0,1,5.26,5.35V452.6a5.63,5.63,0,0,1-5.59,5.68h-31a4.58,4.58,0,0,0-4.53,4.61v32.34a5.83,5.83,0,0,1-5.77,5.88H659.78a6.64,6.64,0,0,1-6.58-6.7v-37l-31.4-.75a5.7,5.7,0,0,1-5.52-5.75V410.54a6,6,0,0,1,6-6.08h24.62A6.4,6.4,0,0,0,653.2,398Z" transform="translate(-488.49 -208.34)"/><rect class="cls-3" x="137.23" y="34.64" width="116.94" height="62.04" rx="9.7"/><rect class="cls-3" x="104.04" y="4" width="177.45" height="90.38" rx="26.07"/></svg>