<svg id="Слой_1" data-name="Слой 1" xmlns="http://www.w3.org/2000/svg" viewBox="0 0 239.65 245.09"><defs><style>.cls-1,.cls-2,.cls-3{fill:none;stroke:#006413;stroke-miterlimit:10;}.cls-1{stroke-width:4px;}.cls-2{stroke-width:8px;}.cls-3{stroke-width:7px;}</style></defs><line class="cls-1" x1="29.03" y1="62.75" x2="185.03" y2="62.75"/><line class="cls-1" x1="30" y1="130.53" x2="84" y2="130.53"/><line class="cls-1" x1="29.03" y1="118.45" x2="172.3" y2="117.6"/><line class="cls-1" x1="30" y1="90.75" x2="186" y2="90.75"/><line class="cls-1" x1="186" y1="105" x2="30" y2="105"/><line class="cls-1" x1="30" y1="76.06" x2="126" y2="76.06"/><line class="cls-1" x1="29.03" y1="36.23" x2="185.03" y2="36.23"/><line class="cls-1" x1="29.03" y1="49" x2="185.03" y2="49"/><line class="cls-1" x1="29.03" y1="150.62" x2="107.03" y2="150.62"/><line class="cls-1" x1="30" y1="164.57" x2="61" y2="164.57"/><path class="cls-2" d="M928.36,585.3" transform="translate(-869 -399)"/><path class="cls-2" d="M943.09,590h39.42l1.55-47.7,30,.17s32.17-33.7,41.48-38.47c3.32-1.7,4.14,14.3,4.14,14.3l-7.15,20.93s15.36,0,28.47.24V440a37,37,0,0,0-37-37H910a37,37,0,0,0-37,37V553c0,20.43,16.57,37,36,37h10.36" transform="translate(-869 -399)"/><path class="cls-2" d="M937.61,587.18" transform="translate(-869 -399)"/><path class="cls-3" d="M984.7,590h-1.17l-.21,18.85h97s10.32-4.5,11.33-7.66c.7-2.17-5.45-6.47-3.91-10,0,0,10.29-1.93,11.27-4.88.91-2.73-4.43-8.9-3.78-12,.74-3.57,9.45-7.77,9.87-10.73.46-3.23-6.4-4.73-7.15-7.14s3.78-7,3.52-9.54c-.31-3.13-3.1-6.79-6.24-7-3.41-.2-8.63-.34-14.26-.44v5" transform="translate(-869 -399)"/><line class="cls-3" x1="145.39" y1="144.83" x2="145.74" y2="208.15"/><path class="cls-2" d="M915.83,587.73v51.45a.91.91,0,0,0,1.69.48l32.7-51.79" transform="translate(-869 -399)"/></svg>