<svg width="471" height="382" viewBox="0 0 471 382" fill="none" xmlns="http://www.w3.org/2000/svg">
<g clip-path="url(#clip0_107_78)">
<path d="M249.133 4.65564H42.5885C39.2228 4.65564 36.4944 6.82756 36.4944 9.50676V40.932C36.4944 43.6112 39.2228 45.7831 42.5885 45.7831H249.133C252.498 45.7831 255.227 43.6112 255.227 40.932V9.50676C255.227 6.82756 252.498 4.65564 249.133 4.65564Z" stroke="#006413" stroke-width="10" stroke-miterlimit="10"/>
<path d="M85.0132 48.176L85.0446 71.1653" stroke="#006413" stroke-width="10" stroke-miterlimit="10"/>
<path d="M207.821 50.2151L207.422 72.8226" stroke="#006413" stroke-width="10" stroke-miterlimit="10"/>
<path d="M286.633 243.822C286.633 243.822 287.674 138.504 286.633 103.084C286.493 98.2887 281.369 88.8472 277.077 85.4858C272.398 81.7614 259.215 77.6086 252.583 77.4037C200.427 75.7929 97.2949 77.2827 45.922 77.4037C38.7401 77.4037 24.4231 81.6962 19.0191 85.4858C14.4222 88.7261 5.31033 96.771 5.27524 101.65C4.87755 150.31 4.10555 254.595 5.27524 304.205C5.4507 311.598 21.3234 322.623 29.6165 325.956C40.9508 330.5 82.9194 329.047 82.9194 329.047" stroke="#006413" stroke-width="8" stroke-miterlimit="10"/>
<path d="M224.324 276.458L9.26392 275.378" stroke="#006413" stroke-width="8" stroke-miterlimit="10"/>
<path d="M351.276 302.843L277.576 261.794C267.482 256.172 253.574 258.128 246.511 266.163C239.449 274.198 241.906 285.27 252 290.892L325.7 331.941C335.794 337.563 349.702 335.607 356.765 327.572C363.827 319.537 361.37 308.465 351.276 302.843Z" stroke="#006413" stroke-width="6" stroke-miterlimit="10"/>
<path d="M203.059 294.487L118.822 319.598C107.286 323.037 101.435 333.27 105.756 342.454C110.076 351.638 122.931 356.295 134.468 352.855L218.704 327.744C230.241 324.305 236.091 314.072 231.771 304.889C227.451 295.705 214.596 291.048 203.059 294.487Z" stroke="#006413" stroke-width="6" stroke-miterlimit="10"/>
<path d="M324.742 343.694H234.792C222.473 343.694 212.486 351.644 212.486 361.45C212.486 371.257 222.473 379.207 234.792 379.207H324.742C337.061 379.207 347.048 371.257 347.048 361.45C347.048 351.644 337.061 343.694 324.742 343.694Z" stroke="#006413" stroke-width="6" stroke-miterlimit="10"/>
<path d="M312.32 283.432L287.101 307.259" stroke="#006413" stroke-width="6" stroke-miterlimit="10"/>
<path d="M279.767 343.694V376.627" stroke="#006413" stroke-width="6" stroke-miterlimit="10"/>
<path d="M157.253 308.135L174.846 340.807" stroke="#006413" stroke-width="6" stroke-miterlimit="10"/>
<path d="M396.736 298.656C419.165 298.656 437.348 285.528 437.348 269.335C437.348 253.141 419.165 240.014 396.736 240.014C374.307 240.014 356.125 253.141 356.125 269.335C356.125 285.528 374.307 298.656 396.736 298.656Z" stroke="#006413" stroke-width="6" stroke-miterlimit="10"/>
<path d="M426.879 379.207C449.309 379.207 467.491 366.079 467.491 349.886C467.491 333.692 449.309 320.565 426.879 320.565C404.45 320.565 386.268 333.692 386.268 349.886C386.268 366.079 404.45 379.207 426.879 379.207Z" stroke="#006413" stroke-width="6" stroke-miterlimit="10"/>
<path d="M436.903 264.968L356.464 273.106" stroke="#006413" stroke-width="6" stroke-miterlimit="10"/>
<path d="M456.8 330.062L396.678 369.486" stroke="#006413" stroke-width="6" stroke-miterlimit="10"/>
<path d="M272.842 320.016C270.679 321.664 263.345 326.049 257.262 327.735C250.373 329.653 241.46 328.424 238.407 328.098" stroke="#006413" stroke-width="8" stroke-miterlimit="10"/>
<path d="M8.30493 141.111L287.078 140.636" stroke="#006413" stroke-width="8" stroke-miterlimit="10"/>
<path d="M126.561 189.631V175.19C126.561 174.224 127.043 173.298 127.9 172.615C128.758 171.933 129.921 171.549 131.134 171.549H161.839C162.392 171.549 162.939 171.636 163.45 171.804C163.961 171.973 164.425 172.219 164.816 172.531C165.207 172.842 165.517 173.212 165.729 173.618C165.941 174.025 166.05 174.461 166.05 174.901V190.218C166.053 190.992 166.441 191.735 167.129 192.282C167.817 192.83 168.749 193.139 169.722 193.142H190.999C191.968 193.144 192.896 193.452 193.58 193.998C194.264 194.545 194.649 195.285 194.649 196.056V219.334C194.649 220.154 194.239 220.94 193.511 221.52C192.783 222.099 191.795 222.425 190.765 222.425H169.208C168.794 222.424 168.383 222.488 168 222.613C167.617 222.738 167.269 222.923 166.975 223.155C166.682 223.388 166.449 223.665 166.29 223.969C166.131 224.274 166.05 224.6 166.05 224.93V242.491C166.05 243.339 165.627 244.152 164.875 244.752C164.123 245.353 163.103 245.691 162.037 245.694H131.134C130.533 245.694 129.937 245.599 129.381 245.416C128.826 245.232 128.321 244.963 127.896 244.624C127.471 244.285 127.135 243.883 126.905 243.44C126.676 242.997 126.559 242.523 126.561 242.044V221.95L104.723 221.541C103.694 221.524 102.716 221.186 101.996 220.602C101.277 220.017 100.874 219.231 100.874 218.412V196.447C100.874 196.012 100.982 195.582 101.191 195.18C101.401 194.778 101.708 194.413 102.095 194.106C102.481 193.799 102.941 193.556 103.446 193.391C103.951 193.225 104.492 193.14 105.038 193.142H122.151C123.32 193.142 124.442 192.772 125.269 192.113C126.096 191.455 126.561 190.562 126.561 189.631V189.631Z" stroke="#006413" stroke-width="8" stroke-miterlimit="10"/>
</g>
<defs>
<clipPath id="clip0_107_78">
<rect width="471" height="382" fill="white"/>
</clipPath>
</defs>
</svg>
